<svg width="53" height="47" viewBox="0 0 53 47" fill="none" xmlns="http://www.w3.org/2000/svg">
<path d="M17.2229 0.624996C20.2221 0.192913 23.3992 3.47166 24.3142 7.99583C25.2292 12.4946 23.5771 16.5104 20.5779 16.9679C17.6042 17.4254 14.4017 14.1467 13.4612 9.6225C12.5208 5.12375 14.2238 1.10791 17.2229 0.624996ZM35.3958 0.624996C38.4204 1.10791 40.0979 5.12375 39.2083 9.6225C38.2425 14.1467 35.0654 17.4254 32.0662 16.9679C29.0417 16.5104 27.3896 12.4946 28.33 7.99583C29.245 3.47166 32.4221 0.192913 35.3958 0.624996ZM3.625 12.3167C6.5225 11.0712 10.4621 13.3333 12.5208 17.2729C14.4525 21.2887 13.7917 25.5079 10.9196 26.7533C8.0475 27.9987 4.13333 25.7621 2.12542 21.7717C0.117499 17.7812 0.829166 13.5367 3.625 12.3167ZM49.375 12.3167C52.1708 13.5367 52.8825 17.7812 50.8746 21.7717C48.8667 25.7621 44.9525 27.9987 42.0804 26.7533C39.2083 25.5079 38.5475 21.2887 40.4792 17.2729C42.5379 13.3333 46.4775 11.0712 49.375 12.3167ZM45.1304 39.7158C45.2321 42.105 43.4021 44.7483 41.2163 45.7396C36.6667 47.8237 31.2783 43.5029 26.2204 43.5029C21.1625 43.5029 15.7233 48.0017 11.25 45.7396C8.70833 44.4942 6.95458 41.19 7.285 38.445C7.7425 34.6579 12.2921 32.6246 14.9862 29.8542C18.57 26.2704 21.1117 19.535 26.2204 19.535C31.3038 19.535 33.9979 26.1687 37.4292 29.8542C40.2504 32.955 44.9525 35.5729 45.1304 39.7158Z" fill="#2C2C2C"/>
</svg>
