<svg width="80" height="80" viewBox="0 0 80 80" fill="none" xmlns="http://www.w3.org/2000/svg">
<path d="M23.9889 68.6471C25.2979 69.2675 25.8561 70.8315 25.2358 72.1405L23.6238 75.542C23.0035 76.8511 21.4393 77.4093 20.1302 76.7889C18.8213 76.1685 18.2631 74.6045 18.8834 73.2955L20.4953 69.894C21.1157 68.5849 22.6799 68.0266 23.9889 68.6471ZM11.1025 62.7827C12.4135 63.4034 12.9727 64.9696 12.3512 66.2803L10.7425 69.6728C10.1215 70.9823 8.55688 71.5409 7.247 70.9207C5.936 70.3 5.37682 68.7338 5.99831 67.4231L7.60703 64.0306C8.22798 62.7211 9.79261 62.1625 11.1025 62.7827ZM36.7955 62.436C38.1256 63.0133 38.7353 64.56 38.1569 65.8895L36.6718 69.3035C36.0235 70.7939 34.2903 71.4772 32.7994 70.8301C31.6316 70.3232 31.0963 68.9653 31.6041 67.798L33.3449 63.7963C33.9225 62.4683 35.467 61.8594 36.7955 62.436ZM20.574 59.8594C22.0564 60.4902 23.6613 60.7813 25.2708 60.7114C26.8804 60.6415 28.4539 60.2122 29.8761 59.4552L38.5902 55.1191C42.7163 52.9196 44.4906 47.3289 40.9735 43.3813C39.3986 41.4232 36.9629 40.5991 34.7791 40.5991H30.9155C29.9076 40.5991 29.1516 40.2106 28.7999 39.7592L28.7684 39.7224L26.5269 36.9559C24.9468 34.9559 22.49 34.1212 20.2853 34.1212C15.4715 34.1212 11.5659 38.6673 12.5685 43.4548L14.4951 52.7201C14.5097 52.7908 14.5272 52.8609 14.5476 52.9301C15.3718 55.6808 17.4296 58.568 20.574 59.8594ZM7.55784 49.5035C8.86938 50.123 9.42969 51.689 8.80886 52.9999L7.19831 56.4007C6.57787 57.7108 5.0129 58.2699 3.70272 57.6496C2.39211 57.0291 1.83292 55.4635 2.4539 54.1531L4.06529 50.7527C4.68545 49.4441 6.24841 48.885 7.55784 49.5035ZM56.5283 38.3874C57.8381 37.7651 59.4043 38.3231 60.0257 39.6334L61.636 43.0293C62.2564 44.3376 61.7001 45.9012 60.3928 46.5238C59.0822 47.1478 57.514 46.5897 56.8924 45.278L55.2829 41.8817C54.6626 40.5728 55.22 39.0089 56.5283 38.3874ZM69.4163 32.5196C70.7263 31.8993 72.2911 32.458 72.9122 33.7677L74.5214 37.1613C75.1427 38.4715 74.5845 40.0373 73.2745 40.659C71.9637 41.281 70.3969 40.7222 69.7755 39.4111L68.1671 36.017C67.546 34.7063 68.1053 33.1403 69.4163 32.5196ZM43.7203 32.1757C45.0504 31.5976 46.5973 32.2069 47.1758 33.5369L48.7874 37.2415C49.3657 38.5711 48.7568 40.1179 47.4273 40.6964C46.0981 41.2747 44.5516 40.6664 43.9727 39.3374L42.3592 35.6336C41.7796 34.3029 42.3891 32.7543 43.7203 32.1757ZM50.4593 28.793C51.8353 29.7969 53.4632 30.3987 55.1614 30.5313C56.8596 30.6638 58.5611 30.3219 60.0763 29.5437C63.1787 28.2103 65.1998 25.3126 65.9925 22.2732C66.0043 22.2315 66.0148 22.1895 66.024 22.1472L67.9558 12.8871C68.9322 8.21506 65.4885 3.54827 60.2338 3.54827C58.029 3.54827 55.5723 4.38819 53.9922 6.38299L51.7191 9.18621C51.3674 9.63766 50.6167 10.0314 49.6036 10.0314H45.7347C43.53 10.0314 41.0627 10.8713 39.4826 12.8923C38.78 13.784 38.2815 14.819 38.0222 15.9242C37.7629 17.0295 37.7491 18.1781 37.9818 19.2893C38.2146 20.4004 38.6881 21.447 39.3692 22.3553C40.0503 23.2635 40.9222 24.0114 41.9236 24.5462L41.9919 24.5829L50.4593 28.793ZM72.9545 19.2422C74.2642 18.62 75.8303 19.1775 76.4522 20.4873L78.0638 23.8812C78.6857 25.191 78.1287 26.7569 76.8194 27.3797C75.5081 28.0034 73.9396 27.4448 73.3177 26.1326L71.7088 22.7374C71.0884 21.4282 71.6459 19.8639 72.9545 19.2422Z" fill="#2C2C2C" fill-opacity="0.08"/>
</svg>
